# xmcd CD database file
#
# Track frame offsets:
#	150
#	9422
#	29645
#	51327
#	66860
#	89100
#	106697
#	108567
#	129647
#	150220
#	167257
#	196532
#
# Disc length: 2694 seconds
#
# Revision: 4
# Processed by: cddbd v1.5.2PL0 Copyright (c) Steve Scherf et al.
# Submitted via: CDex 1.70beta2
#
DISCID=910a840c
DTITLE=MOON CHILD - MY LITTLE RED BOOK
DYEAR=1997
DGENRE=J-Pop
TTITLE0=WILD CHERRY
TTITLE1=選ばれた場所
TTITLE2=アネモネ
TTITLE3=ストロベリーアイスクリームソーダ
TTITLE4=ポータブルロック
TTITLE5=ララバイ
TTITLE6=prelude
TTITLE7=ESCAPE
TTITLE8=微熱 (album mix)
TTITLE9=ひぐらしと少年
TTITLE10=Hallelujah in the snow (album version)
TTITLE11=WILD CHERRY (reprise)
EXTD=YEAR: 1997
EXTT0=
EXTT1=
EXTT2=
EXTT3=
EXTT4=
EXTT5=
EXTT6=
EXTT7=
EXTT8=
EXTT9=
EXTT10=
EXTT11=
PLAYORDER=
